<?xml version="1.0" encoding="utf-8"?>
<!-- Generator: Adobe Illustrator 18.0.0, SVG Export Plug-In . SVG Version: 6.00 Build 0)  -->
<svg version="1.2" baseProfile="tiny" id="speaker_1_"
	 xmlns="http://www.w3.org/2000/svg" xmlns:xlink="http://www.w3.org/1999/xlink" x="0px" y="0px" viewBox="0 0 24 24"
	 xml:space="preserve">
<g id="speaker">
	<path fill-rule="evenodd" fill="#010101" d="M17.25,6.631v0.631c1.772,0.843,3,2.645,3,4.738s-1.228,3.895-3,4.738v0.631
		C19.471,16.387,21,14.354,21,12S19.471,7.613,17.25,6.631z M3,8.25v7.5h3L14.25,21V3L6,8.25C4.125,8.25,3,8.25,3,8.25z M15,8.249
		V8.69c1.418,0.589,2.4,1.848,2.4,3.31s-0.982,2.721-2.4,3.31v0.441c1.776-0.686,3-2.106,3-3.751S16.776,8.935,15,8.249z"/>
</g>
</svg>
