<?xml version="1.0" encoding="utf-8"?>
<!-- Generator: Adobe Illustrator 18.0.0, SVG Export Plug-In . SVG Version: 6.00 Build 0)  -->
<svg version="1.2" baseProfile="tiny" xmlns="http://www.w3.org/2000/svg" xmlns:xlink="http://www.w3.org/1999/xlink" x="0px"
	 y="0px" viewBox="0 0 391.5 204.75" xml:space="preserve">
<g id="Rectangle_1_1_">
	<g id="Rectangle_1">
		<rect fill-rule="evenodd" fill="#EC3030" width="391.5" height="204.75"/>
	</g>
</g>
<g id="logo_1_">
	<g id="logo">
		<path fill-rule="evenodd" fill="#FFFFFF" d="M126.887,169.275c-36.447,0-65.993-30.12-65.993-67.275h-5.738
			c0,40.386,32.115,73.125,71.732,73.125c25.466,0,47.803-13.547,60.529-33.939l-4.777-3.246
			C170.94,156.76,150.36,169.275,126.887,169.275z M264.613,28.875c-26.321,0-49.286,14.48-61.763,36.025l4.753,3.23
			c11.444-19.975,32.682-33.405,57.01-33.405c36.447,0,65.993,30.12,65.993,67.275c0,37.155-29.546,67.275-65.993,67.275
			c-36.447,0-65.994-30.12-65.994-67.275c0-40.386-32.116-73.125-71.732-73.125c-39.617,0-71.732,32.739-71.732,73.125h5.738
			c0-37.155,29.546-67.275,65.993-67.275c36.447,0,65.994,30.12,65.994,67.275c0,40.386,32.116,73.125,71.732,73.125
			c39.617,0,71.732-32.739,71.732-73.125v0C336.345,61.614,304.229,28.875,264.613,28.875z"/>
	</g>
</g>
</svg>
