<?xml version="1.0" encoding="utf-8"?>
<!-- Generator: Adobe Illustrator 18.0.0, SVG Export Plug-In . SVG Version: 6.00 Build 0)  -->
<!DOCTYPE svg PUBLIC "-//W3C//DTD SVG 1.0//EN" "http://www.w3.org/TR/2001/REC-SVG-20010904/DTD/svg10.dtd">
<svg version="1.0" id="logo_1_" xmlns="http://www.w3.org/2000/svg" xmlns:xlink="http://www.w3.org/1999/xlink" x="0px" y="0px"
	 viewBox="0 0 375 375" enable-background="new 0 0 375 375" xml:space="preserve">
<g id="logo">
	<g>
		<path fill-rule="evenodd" clip-rule="evenodd" fill="#FFFFFF" d="M256.363,114.375c-26.321,0-49.286,14.48-61.763,36.025
			l4.753,3.23c11.444-19.975,32.682-33.405,57.01-33.405c36.447,0,65.993,30.12,65.993,67.275c0,37.155-29.546,67.275-65.993,67.275
			c-36.447,0-65.994-30.12-65.994-67.275c0-40.386-32.116-73.125-71.732-73.125S46.905,147.114,46.905,187.5h5.738
			c0-37.155,29.546-67.275,65.994-67.275c36.447,0,65.994,30.12,65.994,67.275c0,40.386,32.116,73.125,71.732,73.125
			s71.732-32.739,71.732-73.125v0C328.095,147.114,295.979,114.375,256.363,114.375z M118.637,254.775
			c-36.447,0-65.994-30.12-65.994-67.275h-5.738c0,40.386,32.115,73.125,71.732,73.125c25.465,0,47.803-13.547,60.529-33.939
			l-4.777-3.246C162.69,242.26,142.11,254.775,118.637,254.775z"/>
	</g>
</g>
</svg>
