<?xml version="1.0" encoding="utf-8"?>
<!-- Generator: Adobe Illustrator 18.0.0, SVG Export Plug-In . SVG Version: 6.00 Build 0)  -->
<svg version="1.2" baseProfile="tiny" xmlns="http://www.w3.org/2000/svg" xmlns:xlink="http://www.w3.org/1999/xlink" x="0px"
	 y="0px" viewBox="0 0 24 24" xml:space="preserve">
<g id="handle_1_">
	<g id="handle">
		<path fill-rule="evenodd" fill="#070707" d="M20.652,19.436l-3.712-3.712c-0.439-0.439-1.152-0.439-1.591,0s-0.439,1.152,0,1.591
			l3.712,3.712c0.439,0.439,1.152,0.439,1.591,0C21.091,20.587,21.091,19.875,20.652,19.436z"/>
	</g>
</g>
<g id="glass_1_">
	<g id="Ellipse_1">
		<path fill-rule="evenodd" fill="#070707" d="M10.875,3C6.526,3,3,6.526,3,10.875s3.526,7.875,7.875,7.875s7.875-3.526,7.875-7.875
			S15.224,3,10.875,3z M10.875,16.781c-3.262,0-5.906-2.644-5.906-5.906s2.644-5.906,5.906-5.906s5.906,2.644,5.906,5.906
			S14.137,16.781,10.875,16.781z"/>
	</g>
</g>
</svg>
