<?xml version="1.0" encoding="utf-8"?>
<!-- Generator: Adobe Illustrator 18.0.0, SVG Export Plug-In . SVG Version: 6.00 Build 0)  -->
<svg version="1.2" baseProfile="tiny" id="Rectangle_1_copy_1_"
	 xmlns="http://www.w3.org/2000/svg" xmlns:xlink="http://www.w3.org/1999/xlink" x="0px" y="0px" viewBox="0 0 24 24"
	 xml:space="preserve">
<g id="Rectangle_1_copy">
	<path fill-rule="evenodd" d="M18,15c-0.961,0-1.807,0.46-2.356,1.164l-6.783-3.308C8.943,12.583,9,12.3,9,12
		c0-0.422-0.089-0.823-0.247-1.188l6.69-3.262C15.969,8.416,16.913,9,18,9c1.657,0,3-1.343,3-3s-1.343-3-3-3s-3,1.343-3,3
		c0,0.293,0.055,0.571,0.134,0.839l-6.789,3.311C7.795,9.454,6.955,9,6,9c-1.657,0-3,1.343-3,3s1.343,3,3,3
		c1.081,0,2.02-0.577,2.548-1.434l6.69,3.262C15.085,17.188,15,17.584,15,18c0,1.657,1.343,3,3,3s3-1.343,3-3S19.657,15,18,15z"/>
</g>
</svg>
